<?xml version="1.0" standalone="no"?>
<!DOCTYPE svg PUBLIC "-//W3C//DTD SVG 20010904//EN"
 "http://www.w3.org/TR/2001/REC-SVG-20010904/DTD/svg10.dtd">
<svg version="1.0" xmlns="http://www.w3.org/2000/svg"
 width="294.000000pt" height="294.000000pt" viewBox="0 0 294.000000 294.000000"
 preserveAspectRatio="xMidYMid meet">
<metadata>
Created by potrace 1.11, written by Peter Selinger 2001-2013
</metadata>
<g transform="translate(0.000000,294.000000) scale(0.100000,-0.100000)"
fill="#000000" stroke="none">
<path d="M1118 2913 c-15 -4 -30 -30 -33 -58 -2 -15 32 -80 50 -99 30 -29 43
-67 38 -105 -10 -65 -9 -85 3 -130 16 -54 34 -74 71 -76 50 -2 72 40 49 98 -8
17 -12 41 -9 52 11 50 5 132 -13 166 -21 39 -77 126 -94 147 -11 12 -30 14
-62 5z"/>
<path d="M2009 2822 c-42 -5 -71 -71 -78 -179 -1 -14 -51 -63 -64 -63 -9 0
-55 -51 -71 -78 -5 -8 -12 -30 -16 -48 -9 -41 11 -63 62 -68 32 -3 36 0 47 30
7 18 26 45 44 59 82 65 113 113 120 185 2 25 9 57 15 72 19 47 -13 96 -59 90z"/>
<path d="M411 2342 c-7 -17 -10 -40 -6 -52 9 -29 78 -60 133 -60 45 0 65 -14
117 -82 23 -30 83 -68 106 -68 9 0 27 8 39 18 30 24 20 74 -20 99 -16 10 -42
37 -59 60 -47 65 -95 85 -262 109 -33 5 -37 3 -48 -24z"/>
<path d="M1495 2160 c-22 -4 -57 -11 -77 -14 -114 -18 -256 -69 -297 -107 -29
-27 -91 -160 -91 -195 0 -54 63 -85 280 -139 156 -39 284 -83 315 -106 24 -19
26 -27 21 -65 -10 -83 -48 -125 -123 -137 -17 -3 -41 0 -54 7 -21 10 -24 19
-25 76 -2 87 -8 90 -156 90 l-118 0 1 -57 c1 -95 19 -144 59 -168 30 -17 54
-20 180 -22 170 -2 273 14 333 53 35 22 131 131 159 178 24 41 14 96 -21 123
-40 30 -136 74 -246 113 -195 69 -275 117 -275 167 0 58 174 161 256 151 25
-3 29 -8 32 -40 4 -42 -14 -82 -59 -133 l-31 -35 88 4 c49 3 122 6 162 7 80 2
74 -6 74 92 1 56 -12 73 -82 111 -96 52 -196 67 -305 46z"/>
<path d="M2502 2114 c-29 -14 -52 -30 -52 -35 0 -19 -66 -39 -97 -30 -51 15
-154 1 -179 -23 -23 -24 -22 -55 2 -81 21 -23 29 -25 57 -19 17 4 43 7 57 6
108 -8 200 5 200 29 0 5 7 9 15 9 8 0 15 4 15 8 0 5 19 19 43 32 50 28 66 48
61 74 -10 52 -56 63 -122 30z"/>
<path d="M703 1600 c-31 -14 -59 -17 -122 -14 -90 4 -115 -4 -176 -51 -22 -17
-52 -36 -66 -42 -51 -22 -46 -94 7 -107 24 -6 81 8 94 24 3 3 21 18 41 33 34
26 41 27 119 23 60 -4 92 -1 119 10 52 22 82 53 77 80 -10 55 -39 69 -93 44z"/>
<path d="M2086 1431 c-39 -43 -23 -101 27 -101 26 0 63 -31 100 -81 30 -42
102 -79 155 -81 20 -1 50 -7 66 -13 39 -17 82 -2 90 31 13 52 -34 90 -124 99
-66 7 -85 17 -115 64 -28 45 -66 74 -115 89 -46 14 -67 12 -84 -7z"/>
<path d="M1029 1093 c-16 -34 -35 -63 -42 -63 -17 0 -74 -56 -92 -91 -9 -16
-13 -29 -9 -29 4 0 2 -6 -3 -12 -5 -7 -10 -28 -12 -47 -2 -19 -7 -45 -12 -58
-14 -38 -11 -61 12 -82 21 -19 28 -20 64 -8 25 8 55 75 55 122 0 49 16 75 71
117 53 41 84 92 92 151 6 47 -11 67 -59 65 -32 -1 -37 -5 -65 -65z"/>
<path d="M1670 1078 c0 -5 -4 -7 -9 -4 -5 3 -20 -3 -32 -13 -23 -18 -23 -21
-9 -53 9 -22 14 -60 12 -113 -2 -92 9 -134 50 -190 16 -22 38 -55 49 -72 15
-27 25 -33 52 -33 26 0 36 6 45 25 19 42 14 60 -34 131 -44 63 -46 70 -39 113
9 59 9 59 1 106 -8 46 -43 102 -68 109 -10 2 -18 0 -18 -6z"/>
<path d="M310 275 l0 -235 1160 0 1160 0 0 235 0 235 -1160 0 -1160 0 0 -235z"/>
</g>
</svg>
